<svg xmlns="http://www.w3.org/2000/svg" xmlns:xlink="http://www.w3.org/1999/xlink" width="500" zoomAndPan="magnify" viewBox="0 0 375 187.499995" height="250" preserveAspectRatio="xMidYMid meet" version="1.0"><defs><clipPath id="e286b3479c"><path d="M 0.5 11.183594 L 374.5 11.183594 L 374.5 178.425781 L 0.5 178.425781 Z M 0.5 11.183594 " clip-rule="nonzero"/></clipPath><clipPath id="22fd5bf5fd"><path d="M 321.636719 131.371094 C 318.199219 135.867188 310.878906 135.953125 307.957031 135.953125 C 296.410156 135.953125 272.464844 136.269531 240.699219 136.3125 C 235.75 128.601562 230.800781 120.890625 225.851562 113.175781 C 266.046875 113.074219 295.988281 113.335938 307.957031 113.355469 C 310.769531 113.359375 318.53125 113.464844 321.894531 118.144531 C 323.097656 119.824219 323.675781 121.929688 323.675781 124.410156 C 323.675781 127.242188 323.011719 129.570312 321.636719 131.371094 M 110.90625 107.179688 L 137.796875 69.152344 C 145.859375 81.828125 153.925781 94.503906 161.984375 107.179688 Z M 374.5 130.296875 C 374.5 124.25 373.949219 111.992188 364.4375 103.25 C 357.980469 97.320312 350.414062 95.855469 346.839844 95.414062 C 350.242188 94.121094 357.332031 90.886719 363.097656 83.558594 C 370.765625 73.808594 371.070312 63.226562 371.070312 59.324219 C 371.070312 29.125 345.777344 13.898438 306.480469 13.898438 L 197.667969 13.898438 L 163.292969 56.625 L 308.683594 56.625 C 315.816406 56.625 322.929688 59.089844 322.929688 67.183594 C 322.929688 75.535156 316.054688 78.234375 308.683594 78.234375 L 203.4375 78.234375 C 199.871094 72.671875 196.304688 67.113281 192.734375 61.558594 C 179.136719 61.609375 165.535156 61.664062 151.933594 61.714844 C 159.402344 52.464844 166.871094 43.214844 174.34375 33.980469 C 172.5625 30.585938 165.804688 18.703125 152.394531 13.675781 C 145.890625 11.25 139.847656 11.183594 138.78125 11.183594 C 122.808594 11.183594 112.738281 20.027344 105.867188 29.617188 L 0.5 178.203125 L 60.679688 178.203125 L 86.292969 141.980469 C 118.953125 142.058594 151.609375 142.132812 184.265625 142.207031 C 191.949219 154.277344 199.628906 166.355469 207.308594 178.425781 C 249 177.871094 290.695312 177.316406 332.390625 176.765625 C 335.273438 176.550781 354.796875 174.769531 366.617188 158.011719 C 374.878906 146.296875 374.5 133.992188 374.5 130.296875 " clip-rule="nonzero"/></clipPath><clipPath id="fa6112c317"><path d="M 0.5 0.183594 L 374.5 0.183594 L 374.5 167.425781 L 0.5 167.425781 Z M 0.5 0.183594 " clip-rule="nonzero"/></clipPath><clipPath id="e330428748"><path d="M 321.636719 120.371094 C 318.199219 124.867188 310.878906 124.953125 307.957031 124.953125 C 296.410156 124.953125 272.464844 125.269531 240.699219 125.3125 C 235.75 117.601562 230.800781 109.890625 225.851562 102.175781 C 266.046875 102.074219 295.988281 102.335938 307.957031 102.355469 C 310.769531 102.359375 318.53125 102.464844 321.894531 107.144531 C 323.097656 108.824219 323.675781 110.929688 323.675781 113.410156 C 323.675781 116.242188 323.011719 118.570312 321.636719 120.371094 M 110.90625 96.179688 L 137.796875 58.152344 C 145.859375 70.828125 153.925781 83.503906 161.984375 96.179688 Z M 374.5 119.296875 C 374.5 113.25 373.949219 100.992188 364.4375 92.25 C 357.980469 86.320312 350.414062 84.855469 346.839844 84.414062 C 350.242188 83.121094 357.332031 79.886719 363.097656 72.558594 C 370.765625 62.808594 371.070312 52.226562 371.070312 48.324219 C 371.070312 18.125 345.777344 2.898438 306.480469 2.898438 L 197.667969 2.898438 L 163.292969 45.625 L 308.683594 45.625 C 315.816406 45.625 322.929688 48.089844 322.929688 56.183594 C 322.929688 64.535156 316.054688 67.234375 308.683594 67.234375 L 203.4375 67.234375 C 199.871094 61.671875 196.304688 56.113281 192.734375 50.558594 C 179.136719 50.609375 165.535156 50.664062 151.933594 50.714844 C 159.402344 41.464844 166.871094 32.214844 174.34375 22.980469 C 172.5625 19.585938 165.804688 7.703125 152.394531 2.675781 C 145.890625 0.25 139.847656 0.183594 138.78125 0.183594 C 122.808594 0.183594 112.738281 9.027344 105.867188 18.617188 L 0.5 167.203125 L 60.679688 167.203125 L 86.292969 130.980469 C 118.953125 131.058594 151.609375 131.132812 184.265625 131.207031 C 191.949219 143.277344 199.628906 155.355469 207.308594 167.425781 C 249 166.871094 290.695312 166.316406 332.390625 165.765625 C 335.273438 165.550781 354.796875 163.769531 366.617188 147.011719 C 374.878906 135.296875 374.5 122.992188 374.5 119.296875 " clip-rule="nonzero"/></clipPath><clipPath id="4169f2c2e8"><rect x="0" width="375" y="0" height="168"/></clipPath></defs><g clip-path="url(#e286b3479c)"><g clip-path="url(#22fd5bf5fd)"><g transform="matrix(1, 0, 0, 1, 0, 11)"><g clip-path="url(#4169f2c2e8)"><g clip-path="url(#fa6112c317)"><g clip-path="url(#e330428748)"><path fill="#143861" d="M 0.5 0.183594 L 374.5625 0.183594 L 374.5625 167.425781 L 0.5 167.425781 Z M 0.5 0.183594 " fill-opacity="1" fill-rule="nonzero"/></g></g></g></g></g></g></svg>